PathFileType	4	(X/Y/Z)	s04c0103.trc
DataRate	CameraRate	NumFrames	NumMarkers	Units	OrigDataRate	OrigDataStartFrame	OrigNumFrames
200	200	7	50	mm	200	0	2000
Frame#	Time	racr			lacr			c7			jug			rlel			rdr			llel			ldr			s2			lic			ric			lasi			rasi			rpsi			lpsi			rgt			lgt			rth1			rth2			rth3			rth4			rlfc			rmfc			rsh1			rsh2			rsh3			rsh4			rlmal			rmmal			rcal			rtoe			rmt5			lth1			lth2			lth4			lth3			llfc			lmfc			lsh1			lsh2			lsh3			lsh4			llmal			lmmal			lcal			ltoe			lmt5			SBIKE			LBIKE			RBIKE			
		X1	Y1	Z1	X2	Y2	Z2	X3	Y3	Z3	X4	Y4	Z4	X5	Y5	Z5	X6	Y6	Z6	X7	Y7	Z7	X8	Y8	Z8	X9	Y9	Z9	X10	Y10	Z10	X11	Y11	Z11	X12	Y12	Z12	X13	Y13	Z13	X14	Y14	Z14	X15	Y15	Z15	X16	Y16	Z16	X17	Y17	Z17	X18	Y18	Z18	X19	Y19	Z19	X20	Y20	Z20	X21	Y21	Z21	X22	Y22	Z22	X23	Y23	Z23	X24	Y24	Z24	X25	Y25	Z25	X26	Y26	Z26	X27	Y27	Z27	X28	Y28	Z28	X29	Y29	Z29	X30	Y30	Z30	X31	Y31	Z31	X32	Y32	Z32	X33	Y33	Z33	X34	Y34	Z34	X35	Y35	Z35	X36	Y36	Z36	X37	Y37	Z37	X38	Y38	Z38	X39	Y39	Z39	X40	Y40	Z40	X41	Y41	Z41	X42	Y42	Z42	X43	Y43	Z43	X44	Y44	Z44	X45	Y45	Z45	X46	Y46	Z46	X47	Y47	Z47	X48	Y48	Z48	X49	Y49	Z49	X50	Y50	Z50	
0	0.0000	498.680576	1439.140448	-150.315143	527.406024	1418.335789	-423.679533	495.141472	1461.730505	-297.716419	500.014413	1312.966113	-286.813244	506.030544	1128.039093	-44.043621	696.902322	909.970924	-117.373967	506.912365	1135.867958	-532.205949	694.199312	908.115454	-470.532736	-56.340260	1181.893203	-294.824107	105.193999	1177.072604	-440.697350	106.459290	1165.045238	-129.001729	0.000000	0.000000	-0.000000	142.149357	1104.496152	-169.463044	-19.517869	1218.151923	-248.089668	-23.336679	1227.502303	-323.447113	45.222160	1104.124192	-115.225611	62.972250	1120.585476	-486.914169	121.530483	954.368054	-94.861525	174.346577	885.158457	-107.998117	189.510099	800.579469	-114.469107	203.527747	900.037989	-126.807443	231.702553	663.210597	-143.552134	200.196186	645.509461	-252.831395	167.484831	554.423469	-112.880671	149.215494	466.351007	-124.088783	87.608443	403.804986	-126.095413	174.919501	455.146210	-151.232464	29.952916	261.745933	-130.377258	45.632667	266.251140	-217.534828	-45.209096	231.800076	-169.034252	253.346333	196.677037	-162.641744	185.648510	177.591322	-106.293786	124.257730	1069.615425	-491.970824	210.138029	1061.367149	-493.562292	222.847387	1091.295571	-475.610545	282.678143	1010.049908	-503.930702	419.855877	926.305294	-481.670047	455.418955	907.918875	-373.944622	377.863719	819.173906	-498.708950	352.900521	738.724043	-473.908402	289.095296	677.413946	-467.955038	377.552625	729.621931	-444.960102	207.687913	557.159949	-450.580071	207.448347	564.185100	-362.560797	125.260251	542.381925	-404.505488	423.052121	499.457449	-421.216612	347.038763	469.049724	-479.842064	-185.125071	930.635962	-287.005231	-17.550531	79.289957	-485.725017	-17.546463	79.311347	-84.831608	
1	0.0050	498.648088	1439.076598	-150.352129	527.413927	1418.230415	-423.654229	495.183703	1461.583750	-297.754828	499.951879	1312.776214	-286.810074	506.080377	1128.039294	-44.028608	696.868790	909.945433	-117.367767	506.857582	1135.824074	-532.283238	694.218229	908.176672	-470.701066	-56.321028	1181.902923	-294.827517	105.143435	1177.048947	-440.686395	106.460804	1165.026821	-128.982313	0.000000	0.000000	-0.000000	142.148017	1104.502511	-169.407626	-19.521062	1218.158627	-248.090398	-23.343651	1227.525819	-323.432202	45.224984	1104.149739	-115.241234	62.919744	1120.599128	-486.924756	121.531012	954.366004	-94.868718	174.345645	885.175284	-108.017704	189.512401	800.619426	-114.484359	203.548420	900.057176	-126.801244	231.737793	663.247123	-143.563775	200.211898	645.521851	-252.863256	167.487534	554.473591	-112.911605	148.334128	465.424632	-123.941927	87.610337	403.863055	-126.105011	173.580292	453.863409	-150.979539	29.950792	261.798123	-130.395132	45.617780	266.260808	-217.560323	-45.218665	231.840625	-169.047417	253.321580	196.692031	-162.637589	185.623136	177.628511	-106.273025	124.231804	1069.614605	-491.977353	210.094494	1061.344777	-493.582948	222.808817	1091.301238	-475.634043	282.631221	1010.046333	-503.965160	419.810395	926.289311	-481.710426	455.418895	907.896050	-373.980862	377.819103	819.164025	-498.731268	352.882215	738.713770	-473.937164	289.085203	677.392671	-467.994060	377.516936	729.604409	-444.992318	207.701167	557.122411	-450.602915	207.508558	564.134308	-362.538854	125.277793	542.347113	-404.511671	423.062427	499.464568	-421.204582	347.052427	469.051763	-479.856109	-185.134190	930.635404	-287.019552	-17.548631	79.286885	-485.720268	-17.536735	79.313085	-84.866403	
2	0.0100	498.648214	1439.014180	-150.409668	527.387291	1418.148532	-423.643192	495.227081	1461.479315	-297.786907	499.907799	1312.609641	-286.851649	506.103568	1128.065006	-43.986464	696.870259	909.938140	-117.365453	506.817537	1135.791592	-532.393292	694.216341	908.192000	-470.836968	-56.340165	1181.923827	-294.816154	105.138236	1177.061266	-440.696271	106.440872	1165.032320	-128.954591	0.000000	0.000000	-0.000000	142.100088	1104.481969	-169.382806	-19.535102	1218.184890	-248.080004	-23.336253	1227.539255	-323.440659	45.179993	1104.162743	-115.209171	62.893985	1120.599821	-486.927676	121.529602	954.375191	-94.857297	174.349414	885.167367	-108.025479	189.515208	800.614786	-114.502630	203.550043	900.067660	-126.756815	231.738176	663.270605	-143.578651	200.242510	645.527738	-252.883954	167.485667	554.495731	-112.949167	148.327008	465.461509	-123.961495	87.545743	403.933317	-126.117882	173.570575	453.899502	-151.000731	29.923330	261.838467	-130.404267	45.590951	266.326393	-217.573701	-45.239862	231.874084	-169.054498	253.286358	196.705611	-162.636482	185.595406	177.644486	-106.266284	124.191477	1069.612939	-491.974167	210.065315	1061.336511	-493.589435	222.786180	1091.276580	-475.624867	282.582582	1010.032249	-503.991365	419.777141	926.277718	-481.728321	455.383821	907.885594	-374.000490	377.791206	819.152622	-498.762299	352.871561	738.697534	-473.959931	289.071931	677.367153	-468.008077	377.519404	729.589956	-445.027799	207.716568	557.076683	-450.603882	207.463204	564.113984	-362.557041	125.296368	542.296481	-404.514191	423.086235	499.460188	-421.217188	347.087257	469.027663	-479.834972	-185.126985	930.623977	-287.006847	-17.551390	79.301069	-485.720195	-17.539313	79.328873	-84.862219	
3	0.0150	498.647367	1438.972385	-150.449592	527.413342	1418.051392	-423.659291	495.441452	1461.610747	-298.044546	499.844606	1312.478134	-286.863503	506.113527	1128.080319	-43.955081	696.876727	909.907488	-117.325468	506.894399	1135.719652	-532.478265	694.213588	908.207096	-470.935560	-56.610274	1181.815434	-294.943167	105.136742	1177.054536	-440.715709	106.663443	1164.937986	-128.925366	0.000000	0.000000	-0.000000	142.083172	1104.492820	-169.374717	-19.504083	1218.142010	-248.082503	-23.336253	1227.539255	-323.440659	45.190475	1104.160177	-115.218412	62.872011	1120.587941	-486.912402	121.489169	954.391571	-94.996689	174.874839	884.808545	-107.670278	189.490820	800.635026	-114.522631	203.550811	900.074515	-126.778173	231.724902	663.304069	-143.609230	200.334454	645.491066	-252.901416	167.462189	554.542304	-112.967112	148.216898	465.586031	-124.989097	87.541369	403.986287	-126.152586	174.769855	454.887489	-151.502687	29.867234	261.925405	-130.190862	45.561923	266.341829	-217.585533	-45.088704	231.404284	-168.738012	253.271733	196.714574	-162.630389	185.569142	177.660906	-106.274164	124.154773	1069.603323	-491.999438	210.033104	1061.328387	-493.603590	222.525430	1091.419085	-475.976154	282.555098	1010.022337	-504.011374	419.692780	926.315396	-481.717781	455.361443	907.882627	-374.007796	377.773392	819.130018	-498.772986	352.900772	738.689811	-474.112524	289.120575	677.046710	-467.544635	377.558849	729.618769	-445.227683	207.772664	556.879121	-450.289293	207.377361	564.106153	-362.212606	125.303780	542.265131	-404.517101	423.106495	499.460789	-421.213361	347.111609	469.018340	-479.849787	-185.205234	930.653423	-287.318838	-17.539759	79.294601	-485.714952	-17.534660	79.297518	-84.867194	
4	0.0200	498.654054	1438.921227	-150.495878	527.376056	1417.955329	-423.640638	495.457134	1461.472062	-298.091051	499.723239	1312.416929	-286.885256	506.231894	1128.132038	-43.848814	696.884742	909.893478	-117.314263	506.884558	1135.671277	-532.599187	694.158618	908.293840	-471.148485	-56.672196	1181.807279	-294.895937	105.115613	1177.004167	-440.639426	106.652430	1164.951368	-129.110760	0.000000	0.000000	-0.000000	141.907072	1104.376315	-169.505880	-19.583354	1218.111197	-248.004356	-23.432051	1227.647502	-323.260875	45.218637	1104.240733	-115.182775	62.965038	1120.556158	-486.779248	121.479166	954.400922	-94.950226	174.878147	884.817943	-107.743193	189.470595	800.639597	-114.550390	203.545290	900.083285	-126.806846	231.741878	663.335695	-143.576632	200.332297	645.512812	-253.050250	167.471067	554.574371	-113.006373	148.180885	465.618581	-125.005908	87.499482	404.009467	-126.180924	174.712230	454.919915	-151.471912	29.911772	261.931347	-130.105063	45.622923	266.470472	-217.682565	-45.098026	231.458736	-168.747600	253.251251	196.733576	-162.675494	185.556085	177.643341	-106.458587	124.137232	1069.602402	-491.977082	210.006587	1061.349244	-493.632193	222.500906	1091.425005	-475.980769	282.528741	1010.032930	-504.072515	419.637827	926.342962	-481.769428	455.324223	907.902170	-374.061564	377.731417	819.159914	-498.819334	352.872809	738.710584	-474.133695	289.127818	677.049557	-467.600822	377.522316	729.633939	-445.216071	207.834598	556.835220	-450.322361	207.437887	564.066554	-362.202516	125.193657	542.310314	-404.670575	423.111910	499.468456	-421.203668	347.107092	469.000675	-479.863097	-185.199803	930.650814	-287.326747	-17.530775	79.335454	-485.672466	-17.449325	79.245673	-84.851542	
5	0.0250	498.658383	1438.884761	-150.584429	527.351582	1417.913105	-423.639753	495.493208	1461.326377	-298.140653	499.657776	1312.326284	-286.945040	506.258008	1128.156343	-43.820491	696.864228	909.880168	-117.282707	506.890021	1135.660092	-532.777786	694.150549	908.287151	-471.223943	-56.686483	1181.806223	-294.920054	105.087598	1176.994458	-440.607882	106.611624	1164.938036	-129.140028	0.000000	0.000000	-0.000000	141.855293	1104.343364	-169.559892	-19.616838	1218.100498	-248.001203	-23.468064	1227.651855	-323.227546	45.206141	1104.259197	-115.171353	62.962157	1120.527225	-486.761219	121.485923	954.401009	-94.948303	174.863681	884.819398	-107.784864	189.486106	800.634346	-114.591489	203.537129	900.077977	-126.824910	231.749560	663.370121	-143.594730	200.358208	645.517671	-253.097590	167.475137	554.612937	-113.034261	148.168776	465.663444	-125.010332	87.482661	404.035214	-126.206639	174.710356	454.961019	-151.488011	29.924404	261.956823	-130.080546	45.628802	266.524186	-217.698205	-45.087300	231.494036	-168.753990	253.224139	196.755888	-162.670680	185.540215	177.657237	-106.487354	124.118515	1069.596713	-491.973466	209.990378	1061.346255	-493.645694	222.477569	1091.413278	-475.990494	282.502654	1010.014231	-504.083288	419.613693	926.331212	-481.812716	455.294682	907.893670	-374.080952	377.719406	819.137677	-498.843539	352.870099	738.697257	-474.148948	289.133812	677.025139	-467.614776	377.519648	729.634527	-445.240519	207.821476	556.802956	-450.347895	207.457425	564.051853	-362.206493	125.196871	542.297717	-404.708758	423.125119	499.464253	-421.200822	347.118851	468.997680	-479.870179	-185.206132	930.651327	-287.306692	-17.525716	79.336171	-485.676471	-17.458005	79.230313	-84.841961	
6	0.0300	498.677911	1438.844246	-150.656309	527.314877	1417.866393	-423.645748	495.522302	1461.260505	-298.219120	499.589886	1312.229623	-286.943591	506.267655	1128.189697	-43.772887	696.834266	909.858766	-117.290208	506.924176	1135.651289	-532.933532	694.126462	908.262230	-471.293620	-56.732250	1181.800376	-294.919126	105.062870	1176.963498	-440.586317	106.592436	1164.946836	-129.148295	0.000000	0.000000	-0.000000	141.838555	1104.329619	-169.538044	-19.645605	1218.076908	-248.003435	-23.499412	1227.656846	-323.219460	45.194045	1104.253028	-115.176237	62.953993	1120.503932	-486.750409	121.489872	954.405645	-94.962113	174.871193	884.841523	-107.819036	189.468162	800.637555	-114.625274	203.543677	900.077805	-126.878715	231.773765	663.376271	-143.636733	200.367589	645.527717	-253.158532	167.470500	554.636970	-113.062676	148.150917	465.688335	-125.049860	87.472724	404.067697	-126.221708	174.713814	454.976166	-151.514574	29.902252	261.983237	-130.104290	45.561027	266.555918	-217.728267	-45.108370	231.527043	-168.760641	253.202562	196.762721	-162.679973	185.521117	177.673014	-106.496549	124.082000	1069.589720	-491.976091	209.956334	1061.333014	-493.668154	222.474409	1091.398182	-475.996550	282.487635	1009.989721	-504.113206	419.589520	926.327644	-481.837580	455.266380	907.901032	-374.114574	377.715857	819.125321	-498.872887	352.867056	738.678434	-474.159842	289.137710	677.000266	-467.626250	377.514307	729.615897	-445.250677	207.854737	556.775251	-450.333900	207.456465	564.043790	-362.225134	125.193589	542.272701	-404.712632	423.160568	499.462121	-421.189097	347.143530	468.987730	-479.874828	-185.212193	930.657958	-287.321993	-17.526614	79.322113	-485.658577	-17.433641	79.233231	-84.850284	
